<svg xmlns="http://www.w3.org/2000/svg" viewBox="0 0 64 64" width="64" height="64">
  <!-- Background circle -->
  <circle cx="32" cy="32" r="30" fill="#570df8" stroke="#fff" stroke-width="2"/>
  
  <!-- Bicycle icon simplified -->
  <!-- Front wheel -->
  <circle cx="20" cy="40" r="8" fill="none" stroke="#fff" stroke-width="2.5"/>
  <circle cx="20" cy="40" r="2" fill="#fff"/>
  
  <!-- Back wheel -->
  <circle cx="44" cy="40" r="8" fill="none" stroke="#fff" stroke-width="2.5"/>
  <circle cx="44" cy="40" r="2" fill="#fff"/>
  
  <!-- Frame -->
  <line x1="20" y1="40" x2="32" y2="24" stroke="#fff" stroke-width="2.5" stroke-linecap="round"/>
  <line x1="32" y1="24" x2="44" y2="40" stroke="#fff" stroke-width="2.5" stroke-linecap="round"/>
  <line x1="20" y1="40" x2="44" y2="40" stroke="#fff" stroke-width="2.5" stroke-linecap="round"/>
  
  <!-- Seat post -->
  <line x1="35" y1="32" x2="38" y2="22" stroke="#fff" stroke-width="2.5" stroke-linecap="round"/>
  <ellipse cx="38" cy="20" rx="4" ry="2" fill="#fff"/>
  
  <!-- Handlebar -->
  <line x1="29" y1="26" x2="26" y2="20" stroke="#fff" stroke-width="2.5" stroke-linecap="round"/>
  <line x1="24" y1="20" x2="28" y2="20" stroke="#fff" stroke-width="2.5" stroke-linecap="round"/>
  
  <!-- Fire/flame icon (representing calories) -->
  <path d="M 32 10 Q 34 12 34 14 Q 34 16 32 16 Q 30 16 30 14 Q 30 12 32 10 Z" fill="#ff6b6b" stroke="#ff4444" stroke-width="0.5"/>
</svg>
